<mxfile host="app.diagrams.net" agent="Mozilla/5.0 (Windows NT 10.0; Win64; x64) AppleWebKit/537.36 (KHTML, like Gecko) Chrome/141.0.0.0 Safari/537.36" version="28.2.8">
  <diagram name="Trang-1" id="OKyt-SyldZYB9E-PCNRj">
    <mxGraphModel dx="1042" dy="596" grid="1" gridSize="10" guides="1" tooltips="1" connect="1" arrows="1" fold="1" page="1" pageScale="1" pageWidth="827" pageHeight="1169" math="0" shadow="0">
      <root>
        <mxCell id="0" />
        <mxCell id="1" parent="0" />
        <mxCell id="XxvQC8RbJ3e3dUiIpi3C-24" value="" style="rounded=0;whiteSpace=wrap;html=1;" vertex="1" parent="1">
          <mxGeometry x="380" y="160" width="350" height="590" as="geometry" />
        </mxCell>
        <mxCell id="XxvQC8RbJ3e3dUiIpi3C-19" style="rounded=0;orthogonalLoop=1;jettySize=auto;html=1;" edge="1" parent="1" source="XxvQC8RbJ3e3dUiIpi3C-1">
          <mxGeometry relative="1" as="geometry">
            <mxPoint x="540" y="260" as="targetPoint" />
          </mxGeometry>
        </mxCell>
        <mxCell id="XxvQC8RbJ3e3dUiIpi3C-21" style="rounded=0;orthogonalLoop=1;jettySize=auto;html=1;entryX=1;entryY=0.5;entryDx=0;entryDy=0;" edge="1" parent="1" source="XxvQC8RbJ3e3dUiIpi3C-1" target="XxvQC8RbJ3e3dUiIpi3C-5">
          <mxGeometry relative="1" as="geometry" />
        </mxCell>
        <mxCell id="XxvQC8RbJ3e3dUiIpi3C-1" value="học viên" style="shape=umlActor;verticalLabelPosition=bottom;verticalAlign=top;html=1;outlineConnect=0;" vertex="1" parent="1">
          <mxGeometry x="780" y="200" width="30" height="60" as="geometry" />
        </mxCell>
        <mxCell id="XxvQC8RbJ3e3dUiIpi3C-11" style="rounded=0;orthogonalLoop=1;jettySize=auto;html=1;entryX=0;entryY=0.5;entryDx=0;entryDy=0;" edge="1" parent="1" source="XxvQC8RbJ3e3dUiIpi3C-2" target="XxvQC8RbJ3e3dUiIpi3C-6">
          <mxGeometry relative="1" as="geometry" />
        </mxCell>
        <mxCell id="XxvQC8RbJ3e3dUiIpi3C-2" value="giảng viên" style="shape=umlActor;verticalLabelPosition=bottom;verticalAlign=top;html=1;outlineConnect=0;" vertex="1" parent="1">
          <mxGeometry x="230" y="340" width="30" height="60" as="geometry" />
        </mxCell>
        <mxCell id="XxvQC8RbJ3e3dUiIpi3C-10" style="rounded=0;orthogonalLoop=1;jettySize=auto;html=1;entryX=0;entryY=0.5;entryDx=0;entryDy=0;" edge="1" parent="1" source="XxvQC8RbJ3e3dUiIpi3C-3" target="XxvQC8RbJ3e3dUiIpi3C-9">
          <mxGeometry relative="1" as="geometry" />
        </mxCell>
        <mxCell id="XxvQC8RbJ3e3dUiIpi3C-3" value="quản trị" style="shape=umlActor;verticalLabelPosition=bottom;verticalAlign=top;html=1;outlineConnect=0;" vertex="1" parent="1">
          <mxGeometry x="230" y="490" width="30" height="60" as="geometry" />
        </mxCell>
        <mxCell id="XxvQC8RbJ3e3dUiIpi3C-22" style="edgeStyle=orthogonalEdgeStyle;rounded=0;orthogonalLoop=1;jettySize=auto;html=1;entryX=0.5;entryY=0;entryDx=0;entryDy=0;" edge="1" parent="1" source="XxvQC8RbJ3e3dUiIpi3C-4" target="XxvQC8RbJ3e3dUiIpi3C-5">
          <mxGeometry relative="1" as="geometry" />
        </mxCell>
        <mxCell id="XxvQC8RbJ3e3dUiIpi3C-23" value="extend" style="edgeLabel;html=1;align=center;verticalAlign=middle;resizable=0;points=[];" vertex="1" connectable="0" parent="XxvQC8RbJ3e3dUiIpi3C-22">
          <mxGeometry x="-0.176" relative="1" as="geometry">
            <mxPoint as="offset" />
          </mxGeometry>
        </mxCell>
        <mxCell id="XxvQC8RbJ3e3dUiIpi3C-4" value="đăng kí học&amp;nbsp;" style="ellipse;whiteSpace=wrap;html=1;" vertex="1" parent="1">
          <mxGeometry x="414" y="230" width="120" height="80" as="geometry" />
        </mxCell>
        <mxCell id="XxvQC8RbJ3e3dUiIpi3C-5" value="học online" style="ellipse;whiteSpace=wrap;html=1;" vertex="1" parent="1">
          <mxGeometry x="414" y="360" width="120" height="80" as="geometry" />
        </mxCell>
        <mxCell id="XxvQC8RbJ3e3dUiIpi3C-6" value="chấm bài&amp;nbsp;" style="ellipse;whiteSpace=wrap;html=1;" vertex="1" parent="1">
          <mxGeometry x="414" y="480" width="120" height="80" as="geometry" />
        </mxCell>
        <mxCell id="XxvQC8RbJ3e3dUiIpi3C-17" style="edgeStyle=orthogonalEdgeStyle;rounded=0;orthogonalLoop=1;jettySize=auto;html=1;" edge="1" parent="1" source="XxvQC8RbJ3e3dUiIpi3C-8">
          <mxGeometry relative="1" as="geometry">
            <mxPoint x="540" y="520" as="targetPoint" />
          </mxGeometry>
        </mxCell>
        <mxCell id="XxvQC8RbJ3e3dUiIpi3C-18" value="extend" style="edgeLabel;html=1;align=center;verticalAlign=middle;resizable=0;points=[];" vertex="1" connectable="0" parent="XxvQC8RbJ3e3dUiIpi3C-17">
          <mxGeometry x="-0.056" y="2" relative="1" as="geometry">
            <mxPoint as="offset" />
          </mxGeometry>
        </mxCell>
        <mxCell id="XxvQC8RbJ3e3dUiIpi3C-8" value="xem điểm" style="ellipse;whiteSpace=wrap;html=1;" vertex="1" parent="1">
          <mxGeometry x="610" y="480" width="120" height="80" as="geometry" />
        </mxCell>
        <mxCell id="XxvQC8RbJ3e3dUiIpi3C-9" value="cấp tài khoản" style="ellipse;whiteSpace=wrap;html=1;" vertex="1" parent="1">
          <mxGeometry x="414" y="620" width="120" height="80" as="geometry" />
        </mxCell>
        <mxCell id="XxvQC8RbJ3e3dUiIpi3C-20" style="rounded=0;orthogonalLoop=1;jettySize=auto;html=1;entryX=0.623;entryY=-0.008;entryDx=0;entryDy=0;entryPerimeter=0;" edge="1" parent="1" source="XxvQC8RbJ3e3dUiIpi3C-1" target="XxvQC8RbJ3e3dUiIpi3C-8">
          <mxGeometry relative="1" as="geometry" />
        </mxCell>
        <mxCell id="XxvQC8RbJ3e3dUiIpi3C-25" value="hệ thống đào tạo học viên" style="text;html=1;whiteSpace=wrap;strokeColor=none;fillColor=none;align=center;verticalAlign=middle;rounded=0;" vertex="1" parent="1">
          <mxGeometry x="480" y="170" width="160" height="30" as="geometry" />
        </mxCell>
      </root>
    </mxGraphModel>
  </diagram>
</mxfile>
